<?xml version="1.0" encoding="utf-8"?>
<!-- Generator: Adobe Illustrator 27.1.1, SVG Export Plug-In . SVG Version: 6.00 Build 0)  -->
<svg version="1.1" id="_Слой_2" xmlns="http://www.w3.org/2000/svg" xmlns:xlink="http://www.w3.org/1999/xlink" x="0px"
	 y="0px" viewBox="0 0 148.2 148.2" style="enable-background:new 0 0 148.2 148.2;" xml:space="preserve">
<style type="text/css">
	.st0{fill:#F28C2E;}
	.st1{fill:#B34030;}
	.st2{fill:#F59C29;}
	.st3{fill:#FFFFFF;}
</style>
<g id="_Слой_1-2">
	<circle class="st0" cx="74.1" cy="74.1" r="74.1"/>
	<path class="st1" d="M68.3,114.4c3.5-12.3,6.9-24.6,10.4-36.9c-7-2-13.9-3.9-20.9-5.9c11.4-13.7,22.7-27.3,33.9-40.8
		c0,0,0.1,0,0.1,0C88.4,43,84.9,55.3,81.4,67.7c6.9,2,13.9,3.9,20.9,5.9C91,87.3,79.7,100.9,68.4,114.5L68.3,114.4L68.3,114.4z"/>
	<path class="st1" d="M19.3,110.5C-12.5,64.1,24.9,2.2,80.7,8.3c7.1,0.9,13.9,2.9,20.3,5.9c-13-5.4-27.6-6.7-41.2-3.4
		C15.5,21.4-4.6,72,19.3,110.5L19.3,110.5z"/>
	<path class="st2" d="M45.8,133.5c55,22.5,109-30.9,86.7-86c-2.9-6.9-6.9-13.3-11.9-19c12,12.1,18.8,29.1,18.6,46.2
		C138.7,122.4,88.9,154.1,45.8,133.5L45.8,133.5L45.8,133.5z"/>
	<path class="st3" d="M62.3,114.4c3.5-12.3,6.9-24.6,10.4-36.9c-7-2-13.9-3.9-20.9-5.9c11.4-13.7,22.7-27.3,33.9-40.8
		c0,0,0.1,0,0.1,0C82.4,43,79,55.3,75.5,67.7c6.9,2,13.9,3.9,20.9,5.9c-11.4,13.7-22.7,27.3-34,40.8L62.3,114.4L62.3,114.4z"/>
</g>
</svg>
